<svg width="16" height="16" viewBox="0 0 16 16" fill="none" xmlns="http://www.w3.org/2000/svg">
<path d="M6.26137 10.7094H10.3941C11.0101 10.7094 11.5098 10.2031 11.5098 9.57896C11.5098 8.95671 11.0136 8.45162 10.3995 8.44852L5.81648 8.42641C5.18359 8.4233 4.67322 7.89998 4.67819 7.25834C4.68317 6.62136 5.19431 6.10812 5.82298 6.10851L10.5373 6.11278C12.2786 6.11278 14 7.46821 14 9.49439C14 9.49439 14.0234 12.9063 10.5534 12.9726C10.0763 13.0063 6.14881 13.0063 5.94397 12.9866C3.86421 12.7856 2.21785 11.0818 2.01953 8.97456C2 8.76701 2 8.51912 2 8.00317C2 7.48722 2 7.23933 2.01953 7.03179C2.21785 4.92454 3.86421 3.25642 5.94397 3.05547C6.14881 3.03569 6.39346 3 6.90268 3L9.64673 3.03569L10.9921 3.07138" stroke="#A79D46" stroke-width="1.48921" stroke-linecap="round" stroke-linejoin="round"/>
</svg>
