<svg width="1260" height="141" viewBox="0 0 1260 141" fill="none" xmlns="http://www.w3.org/2000/svg">
<path d="M0 81.4962V79.4157C0 72.6541 1.34365 66.8894 4.03096 62.1216C6.71827 57.2671 10.2724 53.5829 14.6935 51.069C19.2012 48.4684 24.0991 47.168 29.387 47.168C35.2817 47.168 39.7461 48.2083 42.7802 50.2888C45.8143 52.3693 48.0248 54.5365 49.4118 56.7903H51.7523V48.9885H67.8762V124.927C67.8762 129.348 66.5759 132.858 63.9753 135.459C61.3746 138.146 57.9071 139.49 53.5728 139.49H10.4025V125.187H47.8514C50.2787 125.187 51.4923 123.886 51.4923 121.286V104.512H49.1517C48.2848 105.899 47.0712 107.329 45.5108 108.803C43.9505 110.19 41.87 111.36 39.2694 112.314C36.6687 113.267 33.3746 113.744 29.387 113.744C24.0991 113.744 19.2012 112.487 14.6935 109.973C10.2724 107.372 6.71827 103.688 4.03096 98.9204C1.34365 94.0659 0 88.2578 0 81.4962ZM34.0681 99.4405C39.096 99.4405 43.3003 97.8368 46.6811 94.6294C50.0619 91.4219 51.7523 86.9142 51.7523 81.1061V79.8058C51.7523 73.9111 50.0619 69.4034 46.6811 66.2826C43.387 63.0752 39.1827 61.4715 34.0681 61.4715C29.0403 61.4715 24.8359 63.0752 21.4551 66.2826C18.0743 69.4034 16.3839 73.9111 16.3839 79.8058V81.1061C16.3839 86.9142 18.0743 91.4219 21.4551 94.6294C24.8359 97.8368 29.0403 99.4405 34.0681 99.4405Z" fill="#F2E6C0"/>
<path d="M108.016 114.524C102.988 114.524 98.5672 113.397 94.753 111.143C91.0254 108.803 88.1214 105.595 86.0409 101.521C83.9604 97.4467 82.9202 92.7656 82.9202 87.4777V48.9885H99.3041V86.1773C99.3041 91.0318 100.474 94.6727 102.815 97.1C105.242 99.5272 108.666 100.741 113.087 100.741C118.115 100.741 122.016 99.0938 124.79 95.7996C127.564 92.4188 128.951 87.7377 128.951 81.7563V48.9885H145.335V113.484H129.211V105.032H126.871C125.83 107.199 123.88 109.323 121.019 111.403C118.159 113.484 113.824 114.524 108.016 114.524Z" fill="#F2E6C0"/>
<path d="M180.991 115.304C176.397 115.304 172.279 114.524 168.638 112.964C164.997 111.317 162.093 108.976 159.926 105.942C157.845 102.821 156.805 99.0504 156.805 94.6294C156.805 90.2083 157.845 86.5241 159.926 83.5767C162.093 80.5427 165.04 78.2888 168.768 76.8151C172.582 75.2547 176.917 74.4746 181.771 74.4746H199.455V70.8337C199.455 67.7996 198.502 65.329 196.595 63.4219C194.688 61.4281 191.653 60.4312 187.492 60.4312C183.418 60.4312 180.384 61.3848 178.39 63.2919C176.397 65.1123 175.096 67.4962 174.489 70.4436L159.406 65.3724C160.446 62.0783 162.093 59.0876 164.347 56.4002C166.688 53.6263 169.765 51.4157 173.579 49.7687C177.48 48.0349 182.205 47.168 187.753 47.168C196.248 47.168 202.966 49.2919 207.907 53.5396C212.849 57.7872 215.319 63.942 215.319 72.004V96.0597C215.319 98.6603 216.533 99.9606 218.96 99.9606H224.161V113.484H213.239C210.031 113.484 207.387 112.704 205.307 111.143C203.226 109.583 202.186 107.502 202.186 104.902V104.772H199.715C199.369 105.812 198.588 107.199 197.375 108.933C196.161 110.58 194.254 112.054 191.653 113.354C189.053 114.654 185.499 115.304 180.991 115.304ZM183.852 102.041C188.446 102.041 192.174 100.784 195.034 98.2702C197.982 95.6696 199.455 92.2455 199.455 87.9978V86.6975H182.941C179.907 86.6975 177.523 87.3476 175.79 88.6479C174.056 89.9482 173.189 91.7687 173.189 94.1092C173.189 96.4498 174.099 98.3569 175.92 99.8306C177.74 101.304 180.384 102.041 183.852 102.041Z" fill="#F2E6C0"/>
<path d="M262.567 115.304C256.326 115.304 250.648 114.004 245.533 111.403C240.505 108.803 236.518 105.032 233.57 100.091C230.623 95.1495 229.149 89.1681 229.149 82.1464V80.326C229.149 73.3043 230.623 67.3229 233.57 62.3817C236.518 57.4405 240.505 53.6696 245.533 51.069C250.648 48.4684 256.326 47.168 262.567 47.168C268.722 47.168 274.01 48.2516 278.431 50.4188C282.852 52.586 286.406 55.5767 289.093 59.391C291.867 63.1185 293.688 67.3662 294.555 72.134L278.691 75.5148C278.344 72.9142 277.564 70.5736 276.35 68.4931C275.137 66.4126 273.403 64.7656 271.149 63.552C268.982 62.3383 266.251 61.7315 262.957 61.7315C259.663 61.7315 256.672 62.4684 253.985 63.942C251.384 65.329 249.304 67.4529 247.744 70.3136C246.27 73.0876 245.533 76.5117 245.533 80.586V81.8863C245.533 85.9606 246.27 89.4281 247.744 92.2888C249.304 95.0628 251.384 97.1866 253.985 98.6603C256.672 100.047 259.663 100.741 262.957 100.741C267.898 100.741 271.626 99.4838 274.14 96.9699C276.74 94.3693 278.388 90.9885 279.081 86.8275L294.945 90.5984C293.818 95.1928 291.867 99.3972 289.093 103.211C286.406 106.939 282.852 109.886 278.431 112.054C274.01 114.221 268.722 115.304 262.567 115.304Z" fill="#F2E6C0"/>
<path d="M325.884 115.304C321.29 115.304 317.172 114.524 313.531 112.964C309.89 111.317 306.986 108.976 304.819 105.942C302.739 102.821 301.698 99.0504 301.698 94.6294C301.698 90.2083 302.739 86.5241 304.819 83.5767C306.986 80.5427 309.934 78.2888 313.661 76.8151C317.475 75.2547 321.81 74.4746 326.664 74.4746H344.348V70.8337C344.348 67.7996 343.395 65.329 341.488 63.4219C339.581 61.4281 336.547 60.4312 332.386 60.4312C328.311 60.4312 325.277 61.3848 323.283 63.2919C321.29 65.1123 319.989 67.4962 319.383 70.4436L304.299 65.3724C305.339 62.0783 306.986 59.0876 309.24 56.4002C311.581 53.6263 314.658 51.4157 318.472 49.7687C322.373 48.0349 327.098 47.168 332.646 47.168C341.141 47.168 347.859 49.2919 352.8 53.5396C357.742 57.7872 360.212 63.942 360.212 72.004V96.0597C360.212 98.6603 361.426 99.9606 363.853 99.9606H369.054V113.484H358.132C354.924 113.484 352.28 112.704 350.2 111.143C348.119 109.583 347.079 107.502 347.079 104.902V104.772H344.609C344.262 105.812 343.482 107.199 342.268 108.933C341.054 110.58 339.147 112.054 336.547 113.354C333.946 114.654 330.392 115.304 325.884 115.304ZM328.745 102.041C333.339 102.041 337.067 100.784 339.927 98.2702C342.875 95.6696 344.348 92.2455 344.348 87.9978V86.6975H327.835C324.8 86.6975 322.417 87.3476 320.683 88.6479C318.949 89.9482 318.082 91.7687 318.082 94.1092C318.082 96.4498 318.992 98.3569 320.813 99.8306C322.633 101.304 325.277 102.041 328.745 102.041Z" fill="#F2E6C0"/>
<path d="M378.433 113.484V48.9885H394.557V56.0102H396.897C398.024 53.843 399.888 51.9792 402.489 50.4188C405.089 48.7718 408.513 47.9482 412.761 47.9482C417.355 47.9482 421.04 48.8585 423.814 50.6789C426.588 52.4126 428.711 54.7098 430.185 57.5705H432.526C433.999 54.7965 436.08 52.4993 438.767 50.6789C441.455 48.8585 445.269 47.9482 450.21 47.9482C454.198 47.9482 457.795 48.8151 461.003 50.5489C464.297 52.1959 466.897 54.7532 468.804 58.2207C470.798 61.6015 471.795 65.8925 471.795 71.0938V113.484H455.411V72.264C455.411 68.7099 454.501 66.0659 452.681 64.3321C450.86 62.5117 448.303 61.6015 445.009 61.6015C441.281 61.6015 438.377 62.8151 436.297 65.2424C434.303 67.5829 433.306 70.9637 433.306 75.3848V113.484H416.922V72.264C416.922 68.7099 416.012 66.0659 414.191 64.3321C412.371 62.5117 409.814 61.6015 406.52 61.6015C402.792 61.6015 399.888 62.8151 397.807 65.2424C395.814 67.5829 394.817 70.9637 394.817 75.3848V113.484H378.433Z" fill="#F2E6C0"/>
<path d="M517.503 115.304C511.088 115.304 505.323 114.004 500.209 111.403C495.094 108.803 491.063 105.032 488.116 100.091C485.169 95.1495 483.695 89.2114 483.695 82.2764V80.1959C483.695 73.2609 485.169 67.3229 488.116 62.3817C491.063 57.4405 495.094 53.6696 500.209 51.069C505.323 48.4684 511.088 47.168 517.503 47.168C523.918 47.168 529.683 48.4684 534.797 51.069C539.912 53.6696 543.943 57.4405 546.89 62.3817C549.837 67.3229 551.311 73.2609 551.311 80.1959V82.2764C551.311 89.2114 549.837 95.1495 546.89 100.091C543.943 105.032 539.912 108.803 534.797 111.403C529.683 114.004 523.918 115.304 517.503 115.304ZM517.503 100.741C522.531 100.741 526.692 99.1371 529.986 95.9297C533.28 92.6356 534.927 87.9544 534.927 81.8863V80.586C534.927 74.5179 533.28 69.8801 529.986 66.6727C526.779 63.3786 522.618 61.7315 517.503 61.7315C512.475 61.7315 508.314 63.3786 505.02 66.6727C501.726 69.8801 500.079 74.5179 500.079 80.586V81.8863C500.079 87.9544 501.726 92.6356 505.02 95.9297C508.314 99.1371 512.475 100.741 517.503 100.741Z" fill="#F2E6C0"/>
<path d="M563.834 113.484V22.4622H580.218V113.484H563.834Z" fill="#F2E6C0"/>
<path d="M625.16 115.304C618.745 115.304 613.067 113.961 608.125 111.273C603.271 108.499 599.457 104.642 596.683 99.7006C593.995 94.6727 592.652 88.778 592.652 82.0164V80.456C592.652 73.6944 593.995 67.843 596.683 62.9018C599.37 57.8739 603.141 54.0163 607.995 51.329C612.85 48.555 618.485 47.168 624.899 47.168C631.228 47.168 636.732 48.5984 641.413 51.4591C646.095 54.2331 649.735 58.134 652.336 63.1619C654.937 68.103 656.237 73.8677 656.237 80.456V86.0473H609.296C609.469 90.4684 611.116 94.0659 614.237 96.8399C617.358 99.6139 621.172 101.001 625.68 101.001C630.274 101.001 633.655 100.004 635.822 98.0102C637.989 96.0164 639.636 93.8058 640.763 91.3786L654.156 98.4003C652.943 100.654 651.166 103.125 648.825 105.812C646.571 108.413 643.537 110.667 639.723 112.574C635.909 114.394 631.054 115.304 625.16 115.304ZM609.426 73.8244H639.593C639.246 70.0968 637.729 67.1061 635.042 64.8523C632.441 62.5984 629.017 61.4715 624.769 61.4715C620.348 61.4715 616.838 62.5984 614.237 64.8523C611.636 67.1061 610.033 70.0968 609.426 73.8244Z" fill="#F2E6C0"/>
<path d="M747.412 103.693H798.994C806.683 103.693 812.919 97.4202 812.919 89.6862C812.919 81.9763 806.726 75.718 799.061 75.6795L741.859 75.4055C733.96 75.3671 727.59 68.8828 727.652 60.9326C727.714 53.04 734.094 46.6808 741.94 46.6856L800.781 46.7384C822.515 46.7384 844 63.533 844 88.6383C844 88.6383 844.291 130.913 800.982 131.735C795.027 132.153 746.007 132.153 743.45 131.908C717.492 129.418 696.944 108.307 694.468 82.1974C694.225 79.6258 694.225 76.5543 694.225 70.1614C694.225 63.7685 694.225 60.697 694.468 58.1255C696.944 32.0155 717.492 11.3468 743.45 8.85691C746.007 8.61177 749.061 8.16956 755.416 8.16956L789.666 8.61177L806.458 9.05398" stroke="#F2E6C0" stroke-width="16.3391" stroke-linecap="round" stroke-linejoin="round"/>
<path d="M910.652 115.285C902.243 115.285 895.352 113.464 889.977 109.823C884.602 106.182 881.352 100.981 880.225 94.2196L895.308 90.3187C895.915 93.3527 896.912 95.7366 898.299 97.4704C899.773 99.2041 901.55 100.461 903.63 101.241C905.797 101.935 908.138 102.282 910.652 102.282C914.466 102.282 917.283 101.631 919.104 100.331C920.924 98.9441 921.835 97.2537 921.835 95.2599C921.835 93.2661 920.968 91.749 919.234 90.7088C917.5 89.5818 914.726 88.6716 910.912 87.9781L907.271 87.328C902.763 86.4611 898.646 85.2908 894.918 83.8171C891.191 82.2568 888.2 80.1329 885.946 77.4456C883.692 74.7583 882.565 71.2908 882.565 67.0431C882.565 60.6283 884.906 55.7304 889.587 52.3496C894.268 48.8821 900.423 47.1484 908.051 47.1484C915.246 47.1484 921.228 48.7521 925.995 51.9595C930.763 55.167 933.884 59.3713 935.358 64.5725L920.144 69.2537C919.451 65.9595 918.02 63.619 915.853 62.232C913.773 60.845 911.172 60.1515 908.051 60.1515C904.931 60.1515 902.547 60.715 900.9 61.8419C899.252 62.8821 898.429 64.3558 898.429 66.263C898.429 68.3434 899.296 69.9038 901.03 70.9441C902.763 71.8976 905.104 72.6345 908.051 73.1546L911.692 73.8048C916.547 74.6716 920.924 75.8419 924.825 77.3156C928.813 78.7026 931.934 80.7397 934.188 83.427C936.528 86.0277 937.698 89.5818 937.698 94.0896C937.698 100.851 935.228 106.096 930.286 109.823C925.432 113.464 918.887 115.285 910.652 115.285Z" fill="#F2E6C0"/>
<path d="M972.891 113.464C968.643 113.464 965.176 112.164 962.489 109.563C959.888 106.876 958.588 103.322 958.588 98.9007V62.4921H942.464V48.9688H958.588V28.9441H974.972V48.9688H992.656V62.4921H974.972V96.04C974.972 98.6407 976.185 99.941 978.612 99.941H991.095V113.464H972.891Z" fill="#F2E6C0"/>
<path d="M1029.46 114.504C1024.43 114.504 1020.01 113.378 1016.2 111.124C1012.47 108.783 1009.57 105.576 1007.49 101.501C1005.41 97.427 1004.37 92.7459 1004.37 87.458V48.9688H1020.75V86.1577C1020.75 91.0122 1021.92 94.6531 1024.26 97.0803C1026.69 99.5075 1030.11 100.721 1034.53 100.721C1039.56 100.721 1043.46 99.0741 1046.24 95.78C1049.01 92.3992 1050.4 87.7181 1050.4 81.7366V48.9688H1066.78V113.464H1050.66V105.012H1048.32C1047.28 107.179 1045.33 109.303 1042.46 111.384C1039.6 113.464 1035.27 114.504 1029.46 114.504Z" fill="#F2E6C0"/>
<path d="M1108.42 115.285C1103.3 115.285 1098.49 114.028 1093.98 111.514C1089.56 108.913 1086.01 105.142 1083.32 100.201C1080.63 95.2599 1079.29 89.2784 1079.29 82.2568V80.1763C1079.29 73.1546 1080.63 67.1732 1083.32 62.232C1086.01 57.2908 1089.56 53.5633 1093.98 51.0493C1098.41 48.4487 1103.22 47.1484 1108.42 47.1484C1112.32 47.1484 1115.57 47.6252 1118.17 48.5787C1120.86 49.4456 1123.02 50.5725 1124.67 51.9595C1126.32 53.3465 1127.58 54.8202 1128.44 56.3806H1130.78V22.4425H1147.17V113.464H1131.04V105.662H1128.7C1127.23 108.09 1124.93 110.3 1121.81 112.294C1118.78 114.288 1114.31 115.285 1108.42 115.285ZM1113.36 100.981C1118.39 100.981 1122.59 99.3775 1125.97 96.1701C1129.35 92.876 1131.04 88.1082 1131.04 81.8667V80.5664C1131.04 74.3249 1129.35 69.6004 1125.97 66.393C1122.68 63.0989 1118.47 61.4518 1113.36 61.4518C1108.33 61.4518 1104.13 63.0989 1100.75 66.393C1097.37 69.6004 1095.67 74.3249 1095.67 80.5664V81.8667C1095.67 88.1082 1097.37 92.876 1100.75 96.1701C1104.13 99.3775 1108.33 100.981 1113.36 100.981Z" fill="#F2E6C0"/>
<path d="M1162.73 113.464V48.9688H1179.12V113.464H1162.73ZM1170.92 41.427C1167.98 41.427 1165.46 40.4735 1163.38 38.5663C1161.39 36.6592 1160.39 34.1453 1160.39 31.0246C1160.39 27.9038 1161.39 25.3899 1163.38 23.4828C1165.46 21.5756 1167.98 20.6221 1170.92 20.6221C1173.96 20.6221 1176.47 21.5756 1178.46 23.4828C1180.46 25.3899 1181.46 27.9038 1181.46 31.0246C1181.46 34.1453 1180.46 36.6592 1178.46 38.5663C1176.47 40.4735 1173.96 41.427 1170.92 41.427Z" fill="#F2E6C0"/>
<path d="M1225.36 115.285C1218.94 115.285 1213.18 113.984 1208.06 111.384C1202.95 108.783 1198.92 105.012 1195.97 100.071C1193.02 95.1298 1191.55 89.1917 1191.55 82.2568V80.1763C1191.55 73.2413 1193.02 67.3032 1195.97 62.362C1198.92 57.4208 1202.95 53.6499 1208.06 51.0493C1213.18 48.4487 1218.94 47.1484 1225.36 47.1484C1231.77 47.1484 1237.54 48.4487 1242.65 51.0493C1247.77 53.6499 1251.8 57.4208 1254.74 62.362C1257.69 67.3032 1259.17 73.2413 1259.17 80.1763V82.2568C1259.17 89.1917 1257.69 95.1298 1254.74 100.071C1251.8 105.012 1247.77 108.783 1242.65 111.384C1237.54 113.984 1231.77 115.285 1225.36 115.285ZM1225.36 100.721C1230.39 100.721 1234.55 99.1174 1237.84 95.91C1241.13 92.6159 1242.78 87.9348 1242.78 81.8667V80.5664C1242.78 74.4982 1241.13 69.8605 1237.84 66.653C1234.63 63.3589 1230.47 61.7119 1225.36 61.7119C1220.33 61.7119 1216.17 63.3589 1212.87 66.653C1209.58 69.8605 1207.93 74.4982 1207.93 80.5664V81.8667C1207.93 87.9348 1209.58 92.6159 1212.87 95.91C1216.17 99.1174 1220.33 100.721 1225.36 100.721Z" fill="#F2E6C0"/>
</svg>
