<svg width="1260" height="132" viewBox="0 0 1260 132" fill="none" xmlns="http://www.w3.org/2000/svg">
<path d="M0 73.3267V71.2462C0 64.4846 1.34365 58.7199 4.03096 53.9521C6.71827 49.0976 10.2724 45.4134 14.6935 42.8994C19.2012 40.2988 24.0991 38.9985 29.387 38.9985C35.2817 38.9985 39.7461 40.0387 42.7802 42.1192C45.8143 44.1997 48.0248 46.3669 49.4118 48.6208H51.7523V40.8189H67.8762V116.757C67.8762 121.178 66.5759 124.689 63.9753 127.29C61.3746 129.977 57.9071 131.321 53.5728 131.321H10.4025V117.017H47.8514C50.2787 117.017 51.4923 115.717 51.4923 113.116V96.3422H49.1517C48.2848 97.7292 47.0712 99.1595 45.5108 100.633C43.9505 102.02 41.87 103.19 39.2694 104.144C36.6687 105.098 33.3746 105.574 29.387 105.574C24.0991 105.574 19.2012 104.317 14.6935 101.803C10.2724 99.2028 6.71827 95.5186 4.03096 90.7508C1.34365 85.8963 0 80.0883 0 73.3267ZM34.0681 91.271C39.096 91.271 43.3003 89.6672 46.6811 86.4598C50.0619 83.2524 51.7523 78.7446 51.7523 72.9366V71.6363C51.7523 65.7415 50.0619 61.2338 46.6811 58.1131C43.387 54.9056 39.1827 53.3019 34.0681 53.3019C29.0403 53.3019 24.8359 54.9056 21.4551 58.1131C18.0743 61.2338 16.3839 65.7415 16.3839 71.6363V72.9366C16.3839 78.7446 18.0743 83.2524 21.4551 86.4598C24.8359 89.6672 29.0403 91.271 34.0681 91.271Z" fill="#F2E6C0"/>
<path d="M108.016 106.355C102.988 106.355 98.5672 105.228 94.753 102.974C91.0254 100.633 88.1214 97.4258 86.0409 93.3514C83.9604 89.2771 82.9202 84.596 82.9202 79.3081V40.8189H99.3041V78.0078C99.3041 82.8623 100.474 86.5032 102.815 88.9304C105.242 91.3576 108.666 92.5713 113.087 92.5713C118.115 92.5713 122.016 90.9242 124.79 87.6301C127.564 84.2493 128.951 79.5682 128.951 73.5867V40.8189H145.335V105.314H129.211V96.8623H126.871C125.83 99.0295 123.88 101.153 121.019 103.234C118.159 105.314 113.824 106.355 108.016 106.355Z" fill="#F2E6C0"/>
<path d="M180.991 107.135C176.397 107.135 172.279 106.355 168.638 104.794C164.997 103.147 162.093 100.807 159.926 97.7725C157.845 94.6518 156.805 90.8809 156.805 86.4598C156.805 82.0388 157.845 78.3545 159.926 75.4072C162.093 72.3731 165.04 70.1192 168.768 68.6456C172.582 67.0852 176.917 66.305 181.771 66.305H199.455V62.6641C199.455 59.6301 198.502 57.1595 196.595 55.2524C194.688 53.2586 191.653 52.2617 187.492 52.2617C183.418 52.2617 180.384 53.2152 178.39 55.1223C176.397 56.9428 175.096 59.3267 174.489 62.274L159.406 57.2028C160.446 53.9087 162.093 50.918 164.347 48.2307C166.688 45.4567 169.765 43.2462 173.579 41.5991C177.48 39.8654 182.205 38.9985 187.753 38.9985C196.248 38.9985 202.966 41.1223 207.907 45.37C212.849 49.6177 215.319 55.7725 215.319 63.8344V87.8901C215.319 90.4908 216.533 91.7911 218.96 91.7911H224.161V105.314H213.239C210.031 105.314 207.387 104.534 205.307 102.974C203.226 101.413 202.186 99.3329 202.186 96.7323V96.6022H199.715C199.369 97.6425 198.588 99.0295 197.375 100.763C196.161 102.41 194.254 103.884 191.653 105.184C189.053 106.485 185.499 107.135 180.991 107.135ZM183.852 93.8716C188.446 93.8716 192.174 92.6146 195.034 90.1007C197.982 87.5001 199.455 84.0759 199.455 79.8282V78.5279H182.941C179.907 78.5279 177.523 79.1781 175.79 80.4784C174.056 81.7787 173.189 83.5991 173.189 85.9397C173.189 88.2802 174.099 90.1874 175.92 91.661C177.74 93.1347 180.384 93.8716 183.852 93.8716Z" fill="#F2E6C0"/>
<path d="M262.567 107.135C256.326 107.135 250.648 105.834 245.533 103.234C240.505 100.633 236.518 96.8623 233.57 91.9211C230.623 86.9799 229.149 80.9985 229.149 73.9768V72.1564C229.149 65.1347 230.623 59.1533 233.57 54.2121C236.518 49.2709 240.505 45.5 245.533 42.8994C250.648 40.2988 256.326 38.9985 262.567 38.9985C268.722 38.9985 274.01 40.0821 278.431 42.2493C282.852 44.4165 286.406 47.4072 289.093 51.2214C291.867 54.949 293.688 59.1966 294.555 63.9644L278.691 67.3452C278.344 64.7446 277.564 62.4041 276.35 60.3236C275.137 58.2431 273.403 56.596 271.149 55.3824C268.982 54.1688 266.251 53.562 262.957 53.562C259.663 53.562 256.672 54.2988 253.985 55.7725C251.384 57.1595 249.304 59.2833 247.744 62.144C246.27 64.918 245.533 68.3422 245.533 72.4165V73.7168C245.533 77.7911 246.27 81.2586 247.744 84.1192C249.304 86.8932 251.384 89.0171 253.985 90.4908C256.672 91.8778 259.663 92.5713 262.957 92.5713C267.898 92.5713 271.626 91.3143 274.14 88.8004C276.74 86.1997 278.388 82.8189 279.081 78.6579L294.945 82.4288C293.818 87.0233 291.867 91.2276 289.093 95.0419C286.406 98.7694 282.852 101.717 278.431 103.884C274.01 106.051 268.722 107.135 262.567 107.135Z" fill="#F2E6C0"/>
<path d="M325.884 107.135C321.29 107.135 317.172 106.355 313.531 104.794C309.89 103.147 306.986 100.807 304.819 97.7725C302.739 94.6518 301.698 90.8809 301.698 86.4598C301.698 82.0388 302.739 78.3545 304.819 75.4072C306.986 72.3731 309.934 70.1192 313.661 68.6456C317.475 67.0852 321.81 66.305 326.664 66.305H344.348V62.6641C344.348 59.6301 343.395 57.1595 341.488 55.2524C339.581 53.2586 336.547 52.2617 332.386 52.2617C328.311 52.2617 325.277 53.2152 323.283 55.1223C321.29 56.9428 319.989 59.3267 319.383 62.274L304.299 57.2028C305.339 53.9087 306.986 50.918 309.24 48.2307C311.581 45.4567 314.658 43.2462 318.472 41.5991C322.373 39.8654 327.098 38.9985 332.646 38.9985C341.141 38.9985 347.859 41.1223 352.8 45.37C357.742 49.6177 360.212 55.7725 360.212 63.8344V87.8901C360.212 90.4908 361.426 91.7911 363.853 91.7911H369.054V105.314H358.132C354.924 105.314 352.28 104.534 350.2 102.974C348.119 101.413 347.079 99.3329 347.079 96.7323V96.6022H344.609C344.262 97.6425 343.482 99.0295 342.268 100.763C341.054 102.41 339.147 103.884 336.547 105.184C333.946 106.485 330.392 107.135 325.884 107.135ZM328.745 93.8716C333.339 93.8716 337.067 92.6146 339.927 90.1007C342.875 87.5001 344.348 84.0759 344.348 79.8282V78.5279H327.835C324.8 78.5279 322.417 79.1781 320.683 80.4784C318.949 81.7787 318.082 83.5991 318.082 85.9397C318.082 88.2802 318.992 90.1874 320.813 91.661C322.633 93.1347 325.277 93.8716 328.745 93.8716Z" fill="#F2E6C0"/>
<path d="M378.433 105.314V40.8189H394.557V47.8406H396.897C398.024 45.6734 399.888 43.8096 402.489 42.2493C405.089 40.6022 408.513 39.7787 412.761 39.7787C417.355 39.7787 421.04 40.6889 423.814 42.5093C426.588 44.2431 428.711 46.5403 430.185 49.401H432.526C433.999 46.627 436.08 44.3298 438.767 42.5093C441.455 40.6889 445.269 39.7787 450.21 39.7787C454.198 39.7787 457.795 40.6456 461.003 42.3793C464.297 44.0264 466.897 46.5836 468.804 50.0511C470.798 53.4319 471.795 57.723 471.795 62.9242V105.314H455.411V64.0945C455.411 60.5403 454.501 57.8963 452.681 56.1626C450.86 54.3421 448.303 53.4319 445.009 53.4319C441.281 53.4319 438.377 54.6456 436.297 57.0728C434.303 59.4134 433.306 62.7942 433.306 67.2152V105.314H416.922V64.0945C416.922 60.5403 416.012 57.8963 414.191 56.1626C412.371 54.3421 409.814 53.4319 406.52 53.4319C402.792 53.4319 399.888 54.6456 397.807 57.0728C395.814 59.4134 394.817 62.7942 394.817 67.2152V105.314H378.433Z" fill="#F2E6C0"/>
<path d="M517.503 107.135C511.088 107.135 505.323 105.834 500.209 103.234C495.094 100.633 491.063 96.8623 488.116 91.9211C485.169 86.9799 483.695 81.0418 483.695 74.1069V72.0264C483.695 65.0914 485.169 59.1533 488.116 54.2121C491.063 49.2709 495.094 45.5 500.209 42.8994C505.323 40.2988 511.088 38.9985 517.503 38.9985C523.918 38.9985 529.683 40.2988 534.797 42.8994C539.912 45.5 543.943 49.2709 546.89 54.2121C549.837 59.1533 551.311 65.0914 551.311 72.0264V74.1069C551.311 81.0418 549.837 86.9799 546.89 91.9211C543.943 96.8623 539.912 100.633 534.797 103.234C529.683 105.834 523.918 107.135 517.503 107.135ZM517.503 92.5713C522.531 92.5713 526.692 90.9675 529.986 87.7601C533.28 84.466 534.927 79.7849 534.927 73.7168V72.4165C534.927 66.3483 533.28 61.7106 529.986 58.5031C526.779 55.209 522.618 53.562 517.503 53.562C512.475 53.562 508.314 55.209 505.02 58.5031C501.726 61.7106 500.079 66.3483 500.079 72.4165V73.7168C500.079 79.7849 501.726 84.466 505.02 87.7601C508.314 90.9675 512.475 92.5713 517.503 92.5713Z" fill="#F2E6C0"/>
<path d="M563.834 105.314V14.2926H580.218V105.314H563.834Z" fill="#F2E6C0"/>
<path d="M625.16 107.135C618.745 107.135 613.067 105.791 608.125 103.104C603.271 100.33 599.457 96.4722 596.683 91.531C593.995 86.5031 592.652 80.6084 592.652 73.8468V72.2864C592.652 65.5248 593.995 59.6734 596.683 54.7322C599.37 49.7044 603.141 45.8468 607.995 43.1595C612.85 40.3855 618.485 38.9985 624.899 38.9985C631.228 38.9985 636.732 40.4288 641.413 43.2895C646.095 46.0635 649.735 49.9644 652.336 54.9923C654.937 59.9335 656.237 65.6982 656.237 72.2864V77.8778H609.296C609.469 82.2988 611.116 85.8963 614.237 88.6703C617.358 91.4443 621.172 92.8313 625.68 92.8313C630.274 92.8313 633.655 91.8344 635.822 89.8406C637.989 87.8468 639.636 85.6363 640.763 83.209L654.156 90.2307C652.943 92.4846 651.166 94.9552 648.825 97.6425C646.571 100.243 643.537 102.497 639.723 104.404C635.909 106.225 631.054 107.135 625.16 107.135ZM609.426 65.6549H639.593C639.246 61.9273 637.729 58.9366 635.042 56.6827C632.441 54.4288 629.017 53.3019 624.769 53.3019C620.348 53.3019 616.838 54.4288 614.237 56.6827C611.636 58.9366 610.033 61.9273 609.426 65.6549Z" fill="#F2E6C0"/>
<path d="M910.652 107.115C902.243 107.115 895.352 105.295 889.977 101.654C884.602 98.0129 881.352 92.8117 880.225 86.0501L895.308 82.1491C895.915 85.1832 896.912 87.5671 898.299 89.3008C899.773 91.0346 901.55 92.2915 903.63 93.0717C905.797 93.7652 908.138 94.112 910.652 94.112C914.466 94.112 917.283 93.4618 919.104 92.1615C920.924 90.7745 921.835 89.0841 921.835 87.0903C921.835 85.0965 920.968 83.5795 919.234 82.5392C917.5 81.4123 914.726 80.5021 910.912 79.8086L907.271 79.1584C902.763 78.2915 898.646 77.1213 894.918 75.6476C891.191 74.0872 888.2 71.9634 885.946 69.2761C883.692 66.5888 882.565 63.1213 882.565 58.8736C882.565 52.4587 884.906 47.5609 889.587 44.1801C894.268 40.7126 900.423 38.9788 908.051 38.9788C915.246 38.9788 921.228 40.5826 925.995 43.79C930.763 46.9974 933.884 51.2018 935.358 56.403L920.144 61.0841C919.451 57.79 918.02 55.4494 915.853 54.0624C913.773 52.6754 911.172 51.9819 908.051 51.9819C904.931 51.9819 902.547 52.5454 900.9 53.6723C899.252 54.7126 898.429 56.1863 898.429 58.0934C898.429 60.1739 899.296 61.7343 901.03 62.7745C902.763 63.7281 905.104 64.4649 908.051 64.985L911.692 65.6352C916.547 66.5021 920.924 67.6723 924.825 69.146C928.813 70.533 931.934 72.5702 934.188 75.2575C936.528 77.8581 937.698 81.4123 937.698 85.92C937.698 92.6816 935.228 97.9262 930.286 101.654C925.432 105.295 918.887 107.115 910.652 107.115Z" fill="#F2E6C0"/>
<path d="M972.891 105.295C968.643 105.295 965.176 103.994 962.489 101.394C959.888 98.7064 958.588 95.1522 958.588 90.7312V54.3225H942.464V40.7993H958.588V20.7745H974.972V40.7993H992.656V54.3225H974.972V87.8705C974.972 90.4711 976.185 91.7714 978.612 91.7714H991.095V105.295H972.891Z" fill="#F2E6C0"/>
<path d="M1029.46 106.335C1024.43 106.335 1020.01 105.208 1016.2 102.954C1012.47 100.614 1009.57 97.4061 1007.49 93.3318C1005.41 89.2575 1004.37 84.5764 1004.37 79.2885V40.7993H1020.75V77.9881C1020.75 82.8426 1021.92 86.4835 1024.26 88.9107C1026.69 91.338 1030.11 92.5516 1034.53 92.5516C1039.56 92.5516 1043.46 90.9046 1046.24 87.6104C1049.01 84.2296 1050.4 79.5485 1050.4 73.5671V40.7993H1066.78V105.295H1050.66V96.8426H1048.32C1047.28 99.0098 1045.33 101.134 1042.46 103.214C1039.6 105.295 1035.27 106.335 1029.46 106.335Z" fill="#F2E6C0"/>
<path d="M1108.42 107.115C1103.3 107.115 1098.49 105.858 1093.98 103.344C1089.56 100.744 1086.01 96.9727 1083.32 92.0315C1080.63 87.0903 1079.29 81.1089 1079.29 74.0872V72.0067C1079.29 64.985 1080.63 59.0036 1083.32 54.0624C1086.01 49.1213 1089.56 45.3937 1093.98 42.8798C1098.41 40.2791 1103.22 38.9788 1108.42 38.9788C1112.32 38.9788 1115.57 39.4556 1118.17 40.4092C1120.86 41.2761 1123.02 42.403 1124.67 43.79C1126.32 45.177 1127.58 46.6507 1128.44 48.211H1130.78V14.2729H1147.17V105.295H1131.04V97.4928H1128.7C1127.23 99.92 1124.93 102.131 1121.81 104.124C1118.78 106.118 1114.31 107.115 1108.42 107.115ZM1113.36 92.8117C1118.39 92.8117 1122.59 91.208 1125.97 88.0005C1129.35 84.7064 1131.04 79.9386 1131.04 73.6971V72.3968C1131.04 66.1553 1129.35 61.4309 1125.97 58.2234C1122.68 54.9293 1118.47 53.2822 1113.36 53.2822C1108.33 53.2822 1104.13 54.9293 1100.75 58.2234C1097.37 61.4309 1095.67 66.1553 1095.67 72.3968V73.6971C1095.67 79.9386 1097.37 84.7064 1100.75 88.0005C1104.13 91.208 1108.33 92.8117 1113.36 92.8117Z" fill="#F2E6C0"/>
<path d="M1162.73 105.295V40.7993H1179.12V105.295H1162.73ZM1170.92 33.2575C1167.98 33.2575 1165.46 32.3039 1163.38 30.3968C1161.39 28.4897 1160.39 25.9757 1160.39 22.855C1160.39 19.7343 1161.39 17.2203 1163.38 15.3132C1165.46 13.4061 1167.98 12.4525 1170.92 12.4525C1173.96 12.4525 1176.47 13.4061 1178.46 15.3132C1180.46 17.2203 1181.46 19.7343 1181.46 22.855C1181.46 25.9757 1180.46 28.4897 1178.46 30.3968C1176.47 32.3039 1173.96 33.2575 1170.92 33.2575Z" fill="#F2E6C0"/>
<path d="M1225.36 107.115C1218.94 107.115 1213.18 105.815 1208.06 103.214C1202.95 100.614 1198.92 96.8426 1195.97 91.9015C1193.02 86.9603 1191.55 81.0222 1191.55 74.0872V72.0067C1191.55 65.0717 1193.02 59.1336 1195.97 54.1925C1198.92 49.2513 1202.95 45.4804 1208.06 42.8798C1213.18 40.2791 1218.94 38.9788 1225.36 38.9788C1231.77 38.9788 1237.54 40.2791 1242.65 42.8798C1247.77 45.4804 1251.8 49.2513 1254.74 54.1925C1257.69 59.1336 1259.17 65.0717 1259.17 72.0067V74.0872C1259.17 81.0222 1257.69 86.9603 1254.74 91.9015C1251.8 96.8426 1247.77 100.614 1242.65 103.214C1237.54 105.815 1231.77 107.115 1225.36 107.115ZM1225.36 92.5516C1230.39 92.5516 1234.55 90.9479 1237.84 87.7405C1241.13 84.4463 1242.78 79.7652 1242.78 73.6971V72.3968C1242.78 66.3287 1241.13 61.6909 1237.84 58.4835C1234.63 55.1894 1230.47 53.5423 1225.36 53.5423C1220.33 53.5423 1216.17 55.1894 1212.87 58.4835C1209.58 61.6909 1207.93 66.3287 1207.93 72.3968V73.6971C1207.93 79.7652 1209.58 84.4463 1212.87 87.7405C1216.17 90.9479 1220.33 92.5516 1225.36 92.5516Z" fill="#F2E6C0"/>
</svg>
